<svg width="148" height="148" viewBox="0 0 148 148" fill="none" xmlns="http://www.w3.org/2000/svg">
<g clip-path="url(#clip0_607_189)">
<path d="M87.1569 25.6147C99.353 27.099 112.244 26.5155 95.9254 38.9819C97.2724 40.5176 96.6933 41.6158 95.3677 42.581C91.0092 46.2918 86.9939 50.3886 82.2622 53.6403C77.419 56.8663 74.5748 62.22 69.2511 64.5322C61.5851 71.6019 63.9359 73.8712 71.7006 67.1061C77.6163 62.4302 83.9224 58.342 90.1212 54.0521C94.5097 51.4782 92.4635 49.8952 95.1275 47.5058C97.251 45.6783 100.224 44.7603 101.189 41.6888C103.493 39.2264 106.843 37.6091 109.468 35.4299C116.208 25.546 125.873 16.7304 138.343 15.8081C144.448 15.0059 137.915 23.1008 136.267 24.8167C134.834 26.2281 133.046 27.159 132.548 29.3554C132.441 29.8144 131.69 30.2134 131.128 30.4665C123.329 32.7015 127.782 33.4694 122.767 36.4294C113.171 42.5853 117.971 44.3914 112.394 46.4676C107.216 49.5006 112.823 49.6936 102.729 53.3958C102.798 53.6703 102.866 53.9406 102.931 54.2151C105.711 54.2409 108.254 52.6021 110.893 54.1079C107.559 58.7323 101.79 60.9931 97.5427 64.7639C94.2395 67.2134 91.4339 70.3192 87.247 70.9713C85.7027 71.3745 85.2051 71.9751 85.1021 73.4809C84.8833 75.2183 82.5282 77.878 81.0482 77.6034C82.6483 79.9328 80.8423 81.0353 80.8423 81.0353C75.6387 84.8618 71.0485 89.3748 66.3082 93.7461C63.6871 96.7233 61.7138 97.5126 58.0803 98.5594C59.659 100.816 57.9988 101.652 56.3644 102.759C54.3282 104.212 52.3693 105.769 50.4958 107.426C47.3299 110.082 45.348 114.089 41.1568 115.599C40.3761 115.882 39.5524 119.46 40.0801 120.142C44.3227 123.024 51.6069 111.935 56.8706 114.252C47.8619 121.729 37.4203 127.353 28.0299 134.384C22.659 139.725 15.0959 138.524 20.8358 130.133C19.954 129.907 19.0477 129.79 18.1375 129.785L24.9669 119.176C35.2368 116.877 40.1358 102.682 50.7618 98.8811C52.5121 98.1347 54.0993 94.7156 52.9067 94.0078C52.9067 94.0078 52.2675 86.6765 57.8143 83.502C60.2982 82.0777 62.6619 83.9867 64.5923 82.8156C70.8255 78.1997 77.9938 72.9189 80.6921 65.4545L80.2202 65.1285C73.571 69.6372 67.0118 74.3217 59.4702 77.2516C57.7543 77.9895 52.9453 73.9485 53.1298 72.1038C54.1765 69.1781 54.2923 65.6004 57.7157 64.3821C67.5394 61.1475 61.1861 59.6289 65.7677 56.6818C67.5223 55.4721 71.1215 56.1842 71.2544 53.4773C72.1768 48.9172 77.9166 47.4414 80.1173 43.542C82.4681 39.7412 88.8343 39.4151 90.6789 35.3912C88.6584 34.0056 89.6451 32.3883 90.4301 30.9041C88.6713 29.8959 80.5634 31.5046 79.2422 32.7959C79.2422 32.7959 77.8351 33.4565 77.775 32.5556C77.715 31.6548 77.346 28.7677 80.838 28.4674C84.3299 28.1671 84.0211 26.7858 85.3423 26.1852C86.6636 25.5846 87.1569 25.6147 87.1569 25.6147Z" fill="#DBFF00" stroke="#DBFF00" stroke-width="1.07" stroke-miterlimit="10"/>
<path d="M95.6417 98.6237C131.523 66.1364 150.828 28.9958 138.761 15.6677C126.694 2.33974 87.8238 17.8714 51.9423 50.3587C16.0608 82.846 -3.24442 119.987 8.82283 133.315C20.8901 146.643 59.7602 131.111 95.6417 98.6237Z" stroke="#DBFF00" stroke-width="2.99475" stroke-miterlimit="10"/>
<path d="M63.7688 108.465C63.8691 108.734 63.8816 109.028 63.8045 109.304C63.7275 109.581 63.5648 109.826 63.3398 110.005L60.6458 112.471C60.1696 112.9 59.5819 112.922 59.3588 112.501L56.7849 108.152C56.7387 108.074 56.7203 107.982 56.7328 107.893C56.7453 107.803 56.7879 107.72 56.8536 107.658L58.2735 106.371C58.3018 106.343 58.3362 106.322 58.3741 106.31C58.412 106.298 58.4522 106.295 58.4915 106.301C58.5307 106.307 58.568 106.323 58.6002 106.346C58.6324 106.37 58.6586 106.4 58.6768 106.436L59.02 107.036L60.8174 105.389C60.8461 105.361 60.8809 105.34 60.9191 105.328C60.9572 105.316 60.9977 105.313 61.0373 105.319C61.0769 105.325 61.1144 105.34 61.147 105.364C61.1796 105.387 61.2063 105.418 61.2249 105.453L61.3579 105.681C61.4002 105.762 61.4154 105.854 61.4016 105.944C61.3877 106.034 61.3453 106.118 61.2807 106.182L59.4833 107.825L60.9675 110.348C61.152 110.644 61.4566 110.725 61.6754 110.524C61.7822 110.406 61.8489 110.258 61.8658 110.099C61.8828 109.941 61.8491 109.782 61.7698 109.644L60.7445 107.907C60.7007 107.826 60.6841 107.733 60.6973 107.642C60.7104 107.551 60.7525 107.466 60.8174 107.401L62.0829 106.247C62.1105 106.218 62.1447 106.197 62.1826 106.184C62.2205 106.172 62.2608 106.17 62.2999 106.177C62.339 106.184 62.3757 106.201 62.4068 106.226C62.4378 106.251 62.4621 106.283 62.4776 106.32L63.7688 108.465Z" fill="#DBFF00"/>
<path d="M67.1876 101.768C67.229 101.847 67.2446 101.937 67.2323 102.026C67.22 102.114 67.1804 102.197 67.119 102.262L66.0466 103.244C66.0187 103.273 65.9843 103.295 65.9463 103.307C65.9083 103.32 65.8677 103.323 65.8281 103.317C65.7885 103.311 65.751 103.295 65.7188 103.271C65.6867 103.247 65.6608 103.216 65.6433 103.18L65.5017 102.931C65.3173 102.635 65.0127 102.553 64.7896 102.755C64.679 102.875 64.6114 103.028 64.5974 103.19C64.5834 103.352 64.6239 103.515 64.7124 103.652L66.497 106.697C66.5432 106.775 66.5616 106.866 66.5491 106.956C66.5366 107.046 66.4941 107.128 66.4283 107.191L65.0127 108.478C64.9849 108.511 64.9488 108.537 64.9081 108.553C64.8673 108.568 64.8232 108.573 64.78 108.567C64.7368 108.56 64.6961 108.543 64.6617 108.516C64.6273 108.489 64.6004 108.454 64.5837 108.413L62.2586 104.462C62.2153 104.381 62.1995 104.288 62.2134 104.196C62.2273 104.105 62.2702 104.021 62.3358 103.956L63.7515 102.669L64.0603 102.721C64.1481 102.425 64.3141 102.158 64.5408 101.948L65.4631 101.09C65.935 100.662 66.5184 100.662 66.7501 101.06L67.1876 101.768Z" fill="#DBFF00"/>
<path d="M69.723 95.7839C69.7992 95.8688 69.8459 95.9762 69.8559 96.0899C69.866 96.2036 69.8389 96.3175 69.7787 96.4145L67.6896 98.3277C67.5008 98.4993 67.3335 98.568 67.1705 98.4221L67.0633 98.3063C66.9893 98.2227 66.944 98.1177 66.934 98.0066C66.924 97.8954 66.9497 97.784 67.0075 97.6885L68.5518 95.2648C68.5757 95.22 68.6092 95.1812 68.65 95.1511C68.6909 95.121 68.7379 95.1005 68.7877 95.091C68.8375 95.0816 68.8888 95.0834 68.9379 95.0964C68.9869 95.1094 69.0323 95.1332 69.0709 95.1661L69.723 95.7839ZM73.5324 99.5418C73.633 99.8102 73.6457 100.104 73.5685 100.38C73.4914 100.656 73.3285 100.9 73.1034 101.078L70.2506 103.69C69.7787 104.119 69.1867 104.119 68.9637 103.72L67.1962 100.717C66.9474 100.288 67.1405 99.6104 67.6252 99.1771L70.478 96.5689C70.9499 96.1399 71.5333 96.1399 71.7649 96.5346L72.284 97.4354C72.5285 97.8644 72.3398 98.5422 71.855 98.9755L70.0361 100.64L70.5767 101.562C70.7611 101.858 71.0657 101.94 71.2888 101.738C71.3902 101.622 71.4532 101.477 71.4694 101.323C71.4855 101.17 71.4539 101.015 71.3789 100.88C71.3375 100.801 71.3219 100.711 71.3342 100.623C71.3466 100.534 71.3861 100.452 71.4475 100.387L72.8674 99.0999C72.8953 99.071 72.9296 99.0493 72.9677 99.0366C73.0057 99.0238 73.0463 99.0205 73.0859 99.0268C73.1255 99.0331 73.163 99.0489 73.1951 99.0729C73.2273 99.0968 73.2532 99.1282 73.2707 99.1643L73.5324 99.5418ZM70.5037 99.3444L70.1305 98.701C69.946 98.405 69.6415 98.3234 69.4227 98.5251C69.3114 98.6442 69.243 98.797 69.2282 98.9594C69.2135 99.1217 69.2532 99.2844 69.3412 99.4216L69.7144 100.065L70.5037 99.3444Z" fill="#DBFF00"/>
<path d="M80.7692 93.6475C80.8115 93.7272 80.8277 93.8181 80.8154 93.9075C80.803 93.9968 80.7629 94.08 80.7006 94.1452L79.3622 95.3678C79.3346 95.3968 79.3005 95.4188 79.2627 95.4318C79.2249 95.4449 79.1845 95.4486 79.1449 95.4427C79.1053 95.4368 79.0677 95.4215 79.0354 95.398C79.003 95.3745 78.9768 95.3435 78.9589 95.3077L77.1872 92.3048V92.2748C77.0027 91.9788 76.6982 91.8973 76.4751 92.0989C76.3829 92.1978 76.3209 92.3211 76.2966 92.4542C76.2723 92.5872 76.2866 92.7245 76.3378 92.8496L78.0151 95.7152C78.0565 95.7944 78.0721 95.8845 78.0597 95.9729C78.0474 96.0613 78.0079 96.1437 77.9465 96.2086L77.2172 96.8692C77.1894 96.8981 77.155 96.9198 77.117 96.9326C77.079 96.9453 77.0384 96.9487 76.9988 96.9423C76.9592 96.936 76.9217 96.9202 76.8895 96.8963C76.8573 96.8723 76.8314 96.841 76.814 96.8049L75.2267 94.1023V94.0722C75.0466 93.7762 74.7377 93.6947 74.5189 93.8964C74.4076 94.0156 74.3395 94.1688 74.3255 94.3313C74.3115 94.4938 74.3524 94.6564 74.4417 94.7929L76.222 97.8344C76.2648 97.9136 76.2817 98.0043 76.2701 98.0936C76.2586 98.183 76.2192 98.2664 76.1576 98.3321L74.8149 99.559C74.7871 99.5878 74.7527 99.6096 74.7147 99.6223C74.6766 99.635 74.6361 99.6384 74.5965 99.6321C74.5569 99.6258 74.5194 99.6099 74.4872 99.586C74.455 99.5621 74.4291 99.5307 74.4117 99.4946L72.0694 95.5394C72.0266 95.4588 72.0106 95.3667 72.0237 95.2765C72.0369 95.1862 72.0784 95.1025 72.1423 95.0375L73.4851 93.8106L73.7896 93.862C73.8788 93.5667 74.0445 93.3003 74.2701 93.0899L74.8535 92.5579C74.9659 92.4398 75.1043 92.3497 75.2578 92.2945C75.4112 92.2394 75.5754 92.2209 75.7372 92.2405C75.7927 91.8715 75.9747 91.5334 76.252 91.2838L77.4489 90.1856C77.9208 89.7566 78.4956 89.7566 78.7358 90.1856L80.7692 93.6475Z" fill="#DBFF00"/>
<path d="M85.6383 88.474C85.7385 88.7431 85.751 89.037 85.674 89.3137C85.5969 89.5903 85.4342 89.8355 85.2093 90.014L82.3651 92.6223C81.8889 93.0512 81.3012 93.0727 81.0782 92.6523L80.5805 91.7943C80.2717 91.2838 80.5076 90.4173 81.0996 89.8767L82.704 88.4053L82.2493 87.6203C82.0648 87.3243 81.7602 87.2428 81.5372 87.4444C81.4265 87.564 81.3589 87.7171 81.3449 87.8795C81.3309 88.0418 81.3714 88.2042 81.4599 88.341V88.371C81.5023 88.4506 81.5184 88.5416 81.5061 88.6309C81.4938 88.7202 81.4536 88.8034 81.3913 88.8686L80.0743 90.0698C80.0469 90.0998 80.0125 90.1225 79.9742 90.1361C79.9359 90.1497 79.8948 90.1537 79.8546 90.1478C79.8144 90.1419 79.7763 90.1262 79.7435 90.1021C79.7108 90.0781 79.6844 90.0463 79.6668 90.0097L79.3965 89.5336C79.1477 89.1046 79.3322 88.4354 79.8041 88.0021L82.5624 85.4796C83.0343 85.0507 83.6177 85.0507 83.8494 85.4496L85.6383 88.474ZM83.4075 89.6451L83.0215 88.9845L82.2364 89.7052L82.6911 90.4902C82.8756 90.7862 83.1802 90.8677 83.399 90.6661C83.5102 90.5469 83.5787 90.3941 83.5934 90.2318C83.6082 90.0694 83.5684 89.9068 83.4805 89.7695L83.4075 89.6451Z" fill="#DBFF00"/>
<path d="M90.6533 83.8881C90.7549 84.1571 90.7681 84.4514 90.691 84.7284C90.6138 85.0054 90.4503 85.2505 90.2243 85.4282L87.4488 87.9635C86.9769 88.3925 86.3849 88.3925 86.1618 87.9978L85.8229 87.4358C85.7807 87.3549 85.7654 87.2625 85.7793 87.1722C85.7932 87.082 85.8355 86.9985 85.9001 86.9339L87.2772 85.6727C87.3051 85.6441 87.3397 85.6227 87.3779 85.6106C87.4161 85.5984 87.4566 85.5958 87.496 85.603C87.5354 85.6102 87.5725 85.627 87.6039 85.6519C87.6353 85.6767 87.6601 85.7089 87.6761 85.7456L87.7448 85.8658C87.9292 86.1618 88.2338 86.2433 88.4569 86.0416C88.5675 85.922 88.6351 85.7689 88.6491 85.6066C88.6631 85.4442 88.6226 85.2818 88.5341 85.1451C88.3754 84.8619 88.2338 84.7547 88.1051 84.7161C87.5183 84.9794 86.9456 85.2729 86.3892 85.5955C85.7285 85.9344 85.1022 86.1961 84.5788 85.278L84.403 84.9735C84.1584 84.5445 84.3472 83.871 84.8319 83.4377L87.6075 80.8981C88.0837 80.4691 88.6628 80.4691 88.8944 80.8681L89.2248 81.4343C89.267 81.5153 89.2823 81.6077 89.2684 81.6979C89.2545 81.7882 89.2122 81.8717 89.1475 81.9362L87.7576 83.2232C87.7304 83.252 87.6964 83.2737 87.6588 83.2862C87.6211 83.2987 87.5809 83.3017 87.5419 83.2949C87.5028 83.2881 87.466 83.2717 87.4348 83.2472C87.4035 83.2227 87.3789 83.1909 87.363 83.1546L87.29 83.0302C87.1099 82.7342 86.801 82.6527 86.5822 82.8543C86.4709 82.9736 86.4028 83.1267 86.3888 83.2892C86.3748 83.4518 86.4157 83.6143 86.505 83.7509C86.6637 84.0383 86.8096 84.1498 86.934 84.1798C87.0584 84.2099 88.0965 83.5664 88.6499 83.3219C89.3148 83.0044 89.9369 82.7213 90.4602 83.635L90.6533 83.8881Z" fill="#DBFF00"/>
</g>
<defs>
<clipPath id="clip0_607_189">
<rect width="148" height="148" fill="white"/>
</clipPath>
</defs>
</svg>
